<svg height="100px" width="100px" version="1.1" xmlns="http://www.w3.org/2000/svg"
     viewBox="0 0 200 200" xml:space="preserve">

<!--    <rect x="0" y="0" width="200" height="200" fill="none" stroke="black" stroke-width="2"/>-->

    <g transform="scale(-0.59,0.59) translate(-340, -0)">
        <path d="
            M 287, 128
            h -114
            "
              stroke="black"
              stroke-width="2"
        />

        <path d="
            M 325, 215
            h -93
            l -20, -9
            "
              stroke="black"
              stroke-width="2"
        />

        <path d="
            M 332,227
            L 307,170
            l -26,-55
            c -2 -4 -3 -7 -5 -10
            c -26 -37 -75 -58 -137 -59
            c -1 -0 -1 -0 -2 -0
            c -74,0 -134,59 -135,132
            c -0,42, 19,83, 53,108
            c 7,5,16,8,26,8
            h 224
            c 14,0, 26 -9, 30 -22
            C 337, 256, 336, 241, 332,227
            z"
              fill="none"
              stroke-width="3"
              stroke="black"/>
        />
        <path
                d="
            M 314,215
            H 295
            L 251, 127
            H 273
            L 314, 215
            z"
                fill="black"/>

        <path d="
            M 173,128
            l 39 ,79
            c -8 -4 -15 -9 -21 -15
            c -15 -15 -23 -35 -23 -57
            C 168, 132, 170, 129, 173, 128
            z"
              fill="black"/>

        <path d="
            M 230,213
            l -43,-86
            h 23
            l 44,88
            h -6
            C 242,215, 236,215, 230,213
            z"
              fill="black"/>


        <path d="
            M 269, 215
            l -44 -88
            h 11
            l 44, 88
            z"
              fill="black"/>

        <circle cx="130" cy="150" r="20" fill="black"/>
        <circle cx="130" cy="150" r="10" fill="white"/>
    </g>
</svg>